<svg width="10" height="10" viewBox="0 0 10 10" fill="none" xmlns="http://www.w3.org/2000/svg">
<g clip-path="url(#clip0_1_362)">
<path fill-rule="evenodd" clip-rule="evenodd" d="M3.26483 1.78154C3.81099 0.100653 6.18899 0.100653 6.73514 1.78154C6.89572 2.27574 7.35625 2.61034 7.87589 2.61034C9.64327 2.61034 10.3781 4.87195 8.94827 5.9108C8.52788 6.21623 8.35197 6.75762 8.51255 7.25182C9.0587 8.9327 7.13485 10.3305 5.70501 9.29162C5.28461 8.98618 4.71536 8.98618 4.29497 9.29162C2.86512 10.3305 0.94128 8.9327 1.48743 7.25182C1.64801 6.75762 1.4721 6.21623 1.05171 5.9108C-0.378139 4.87195 0.356704 2.61034 2.12409 2.61034C2.64372 2.61034 3.10426 2.27574 3.26483 1.78154ZM6.12928 3.18563C6.07391 3.02216 5.89651 2.93454 5.73305 2.98991C5.56958 3.04528 5.48195 3.22268 5.53732 3.38615C5.71695 3.91642 6.2264 4.26407 6.7885 4.26407C6.96109 4.26407 7.101 4.12416 7.101 3.95157C7.101 3.77898 6.96109 3.63907 6.7885 3.63907C6.48038 3.63907 6.21857 3.44922 6.12928 3.18563Z" fill="#968702"/>
</g>
<defs>
<clipPath id="clip0_1_362">
<rect width="10" height="10" fill="white"/>
</clipPath>
</defs>
</svg>
